<?xml version="1.0" encoding="iso-8859-1"?>
<!-- Generator: Adobe Illustrator 21.0.0, SVG Export Plug-In . SVG Version: 6.00 Build 0)  -->
<svg version="1.1" xmlns="http://www.w3.org/2000/svg" xmlns:xlink="http://www.w3.org/1999/xlink" x="0px" y="0px"
	 viewBox="0 0 256.263 377.206" style="enable-background:new 0 0 256.263 377.206;" xml:space="preserve">
<g id="Headshape004">
	<path style="fill:#D8D8D8;stroke:#D8D8D8;stroke-miterlimit:10;" d="M0.5,128.131C0.5,57.643,57.643,0.5,128.131,0.5
		s127.631,57.143,127.631,127.631c0,11.882-1.624,23.385-4.661,34.298c-14.982,53.831-64.363,93.333-122.97,93.333
		c-58.787,0-108.29-39.744-123.107-93.829C2.075,151.168,0.5,139.834,0.5,128.131z"/>
	<path style="fill:#D8D8D8;stroke:#D8D8D8;stroke-miterlimit:10;" d="M6.317,241.895c0-73.767,54.264-133.566,121.202-133.566
		c66.938,0,121.202,59.8,121.202,133.566c0,12.434-1.542,24.472-4.426,35.893c-10.106,40.014-75.361,82.231-106.186,97.673
		c-12.03,2.799-21.179,0-21.179,0S24.684,333.869,10.614,277.27C7.813,266.003,6.317,254.141,6.317,241.895z"/>
</g>
<g id="Layer_1">
</g>
</svg>
