<?xml version="1.0" encoding="iso-8859-1"?>
<!-- Generator: Adobe Illustrator 21.0.0, SVG Export Plug-In . SVG Version: 6.00 Build 0)  -->
<svg version="1.1" xmlns="http://www.w3.org/2000/svg" xmlns:xlink="http://www.w3.org/1999/xlink" x="0px" y="0px"
	 viewBox="0 0 306.946 383.04" style="enable-background:new 0 0 306.946 383.04;" xml:space="preserve">
<g id="Headshape002">
	<path style="fill:#D8D8D8;stroke:#D8D8D8;stroke-miterlimit:10;" d="M25.099,128.131C25.099,57.642,82.241,0.5,152.73,0.5
		s127.631,57.143,127.631,127.631c0,11.882-1.624,23.385-4.661,34.298c-14.982,53.831-64.363,93.333-122.97,93.333
		c-58.787,0-108.29-39.744-123.107-93.829C26.674,151.168,25.099,139.834,25.099,128.131z"/>
	<path style="fill:#D8D8D8;stroke:#D8D8D8;stroke-miterlimit:10;" d="M29.581,100.659C-22.584,255.33,7.788,314.372,25.833,332.416
		c18.045,18.045,41.689,50.122,127.601,50.123h0.522c85.912-0.001,109.094-32.079,127.139-50.123
		c18.045-18.045,48.444-77.087-3.721-231.758"/>
</g>
<g id="Layer_1">
</g>
</svg>
