<?xml version="1.0" encoding="iso-8859-1"?>
<!-- Generator: Adobe Illustrator 21.0.0, SVG Export Plug-In . SVG Version: 6.00 Build 0)  -->
<svg version="1.1" xmlns="http://www.w3.org/2000/svg" xmlns:xlink="http://www.w3.org/1999/xlink" x="0px" y="0px"
	 viewBox="0 0 308.042 241.017" style="enable-background:new 0 0 308.042 241.017;" xml:space="preserve">
<g id="Hairshape003">
	<g>
		<path style="fill:#CECECE;" d="M124.033,30.511c-11.179-0.38-36.269,13.034-56.879,82.575c0,0-1.649,62.582-20.733,100.204
			C36.453,232.939,21.73,245.78,0,239.34c32.667-18.772,21.333-44,21.333-44C-4,33.34,124.033-7.327,124.033,22.77"/>
	</g>
	<g>
		<path style="fill:#CECECE;" d="M124.033,30.511C135.211,30.13,198,112.673,272,111.34c36.13-0.651,27.377,80.833,6,126.667
			c0,0,23.683-8.669,23.683-26C342.667,43.34,174.052-44.66,124.033,22.77"/>
	</g>
</g>
<g id="Layer_1">
</g>
</svg>
