<?xml version="1.0" encoding="iso-8859-1"?>
<!-- Generator: Adobe Illustrator 21.0.0, SVG Export Plug-In . SVG Version: 6.00 Build 0)  -->
<svg version="1.1" xmlns="http://www.w3.org/2000/svg" xmlns:xlink="http://www.w3.org/1999/xlink" x="0px" y="0px"
	 viewBox="0 0 373.051 265.46" style="enable-background:new 0 0 373.051 265.46;" xml:space="preserve">
<g id="Hairshape005">
	<g>
		<path style="fill:none;stroke:#000000;stroke-miterlimit:10;" d="M190.606,74.625"/>
	</g>
	<g>
		<path style="fill:none;stroke:#000000;stroke-miterlimit:10;" d="M190.606,74.625"/>
	</g>
	<g>
		<path style="fill:#CECECE;" d="M205.773,54.965c-10.99-0.567-61.956,0.105-88.486,22.367
			c-15.448,12.963-39.099,54.596-41.109,139.52l-17.51-27.557c0-111.393,23.098-138.236,146.732-155.504"/>
	</g>
	<g>
		<path style="fill:#CECECE;" d="M138.068,44.237C138.068,22.112,156.66,0,190.837,0c22.826,0,54.357,13.391,54.357,41.3
			c0,23.233-31.899,42.146-54.973,42.146S138.068,66.361,138.068,44.237z"/>
	</g>
	<g>
		<path style="fill:#CECECE;" d="M47.22,123.874c-11.391-18.285-14.624-63.073,28.435-89.897
			c28.757-17.915,90.647-19.675,105.017,3.391c11.962,19.202-68.611,84.026-98.211,76.738
			C54.931,107.327,58.611,142.159,47.22,123.874z"/>
	</g>
	<g>
		<path style="fill:#CECECE;" d="M19.5,189.995c-17.501-10.066-26.968-34.08-12.215-59.73c9.853-17.131,34.057-34.703,56.134-22.005
			c18.379,10.571,19.57,43.115,9.61,60.433S37.002,200.061,19.5,189.995z"/>
	</g>
	<g>
		<path style="fill:#CECECE;" d="M72.973,251.152c-12.449,10.601-41.894,23.665-61.122,1.088
			c-12.841-15.078-16.501-57.075-0.797-70.448c13.073-11.133,49.867-5.315,56.902,13.43
			C74.038,211.424,85.422,240.55,72.973,251.152z"/>
	</g>
	<g>
		<path style="fill:#CECECE;" d="M167.278,55.761c10.99-0.567,61.956,0.105,88.486,22.367
			c15.448,12.963,39.099,54.596,41.109,139.52l17.51-27.557c0-111.393-23.098-138.236-146.732-155.504"/>
	</g>
	<g>
		<path style="fill:#CECECE;" d="M325.831,124.67c11.391-18.285,14.624-63.073-28.435-89.897
			c-28.757-17.915-90.647-19.675-105.017,3.391c-11.962,19.202,68.611,84.026,98.21,76.738
			C318.12,108.123,314.44,142.955,325.831,124.67z"/>
	</g>
	<g>
		<path style="fill:#CECECE;" d="M353.55,190.791c17.501-10.066,26.968-34.08,12.215-59.73
			c-9.853-17.131-34.057-34.703-56.134-22.005c-18.379,10.571-19.57,43.115-9.61,60.433
			C309.982,186.806,336.049,200.857,353.55,190.791z"/>
	</g>
	<g>
		<path style="fill:#CECECE;" d="M300.078,251.948c12.449,10.601,41.894,23.665,61.121,1.088
			c12.841-15.078,16.501-57.075,0.797-70.448c-13.073-11.133-49.867-5.315-56.902,13.43
			C299.013,212.22,287.629,241.346,300.078,251.948z"/>
	</g>
</g>
<g id="Layer_1">
</g>
</svg>
